<?xml version="1.0" standalone="no"?>
<!DOCTYPE svg PUBLIC "-//W3C//DTD SVG 20010904//EN"
 "http://www.w3.org/TR/2001/REC-SVG-20010904/DTD/svg10.dtd">
<svg version="1.0" xmlns="http://www.w3.org/2000/svg"
 width="401.000000pt" height="400.000000pt" viewBox="0 0 401.000000 400.000000"
 preserveAspectRatio="xMidYMid meet">

<g transform="translate(0.000000,400.000000) scale(0.100000,-0.100000)"
fill="#000000" stroke="none">
<path d="M1845 3994 c-16 -2 -70 -9 -120 -15 -119 -15 -328 -68 -446 -115
-271 -106 -480 -244 -690 -453 -231 -231 -382 -474 -483 -772 -213 -632 -101
-1303 307 -1844 79 -104 269 -294 375 -374 269 -203 562 -329 907 -388 139
-23 481 -23 620 0 442 76 797 258 1106 566 231 231 382 474 483 772 213 632
101 1303 -307 1844 -79 104 -269 294 -375 374 -268 202 -568 331 -902 386 -90
15 -411 28 -475 19z m293 -94 c268 -21 492 -82 727 -200 484 -243 847 -686
985 -1202 46 -174 62 -301 62 -493 0 -192 -16 -319 -62 -493 -138 -516 -501
-959 -985 -1202 -708 -355 -1545 -243 -2139 286 -269 239 -473 571 -566 916
-46 174 -62 301 -62 493 0 192 16 319 62 493 138 516 501 959 985 1202 261
131 496 190 835 209 14 0 85 -4 158 -9z"/>
<path d="M1095 3071 c-51 -23 -93 -65 -116 -116 -18 -38 -19 -89 -19 -970 l0
-930 24 -51 c52 -112 183 -162 309 -117 42 15 77 48 270 253 122 129 276 289
344 355 l122 120 301 -287 c166 -157 314 -304 330 -326 18 -25 49 -50 85 -67
48 -24 64 -27 118 -23 35 3 76 12 92 21 43 22 94 75 112 116 23 53 20 138 -5
187 -13 25 -109 126 -254 265 -519 498 -471 448 -454 472 8 12 158 174 334
360 293 309 321 342 337 392 36 114 -25 243 -137 289 -50 21 -143 20 -191 -3
-26 -12 -163 -150 -420 -423 -210 -222 -410 -433 -444 -469 -33 -35 -137 -145
-230 -243 l-168 -179 -5 619 c-5 679 -2 643 -67 708 -42 43 -99 66 -168 66
-37 0 -75 -7 -100 -19z m165 -89 c43 -21 80 -75 80 -117 0 -65 -75 -135 -145
-135 -70 0 -145 70 -145 135 0 65 75 135 145 135 17 0 46 -8 65 -18z m1590
-58 c111 -45 120 -193 14 -244 -94 -46 -194 21 -194 128 0 52 28 97 73 117 43
18 59 18 107 -1z m-191 -297 c23 -21 55 -40 72 -44 16 -3 32 -10 35 -14 3 -5
-110 -131 -252 -280 l-257 -270 -66 64 c-43 42 -83 71 -114 82 l-47 18 47 51
c27 28 149 158 272 288 l224 238 22 -48 c12 -26 41 -64 64 -85z m-1464 18 c54
0 78 5 108 22 l37 22 0 -552 -1 -552 -144 -150 -144 -150 -1 702 0 702 38 -22
c29 -17 53 -22 107 -22z m853 -569 c51 -27 75 -62 80 -118 4 -49 1 -56 -31
-93 -33 -38 -37 -40 -96 -40 -56 0 -63 3 -97 36 -65 65 -56 164 19 209 38 23
87 26 125 6z m-252 -227 c16 -29 47 -64 74 -84 98 -72 116 -36 -184 -353 -241
-256 -265 -278 -271 -255 -17 67 -115 163 -167 163 -10 0 -18 4 -18 8 0 8 528
572 535 572 2 0 16 -23 31 -51z m745 -226 l270 -258 -39 -13 c-54 -18 -107
-65 -132 -118 l-22 -45 -72 68 c-39 38 -157 151 -263 252 l-192 183 86 94 c47
52 88 94 90 94 2 0 126 -116 274 -257z m378 -371 c37 -20 71 -73 71 -110 0
-13 -8 -40 -17 -59 -44 -93 -189 -99 -243 -10 -72 117 64 246 189 179z m-1657
-39 c93 -54 87 -192 -9 -235 -94 -42 -193 24 -193 128 0 104 109 162 202 107z"/>
</g>
</svg>
