<?xml version="1.0" standalone="no"?>
<!DOCTYPE svg PUBLIC "-//W3C//DTD SVG 20010904//EN"
 "http://www.w3.org/TR/2001/REC-SVG-20010904/DTD/svg10.dtd">
<svg version="1.0" xmlns="http://www.w3.org/2000/svg"
 width="205" height="22" viewBox="0 0 205 22"
 preserveAspectRatio="xMidYMid meet">

<g transform="translate(0.000000,424.000000) scale(0.100000,-0.100000)"
fill="#000000" stroke="none">
<path d="M1845 4234 c-16 -2 -70 -9 -120 -15 -119 -15 -328 -68 -446 -115
-271 -106 -480 -244 -690 -453 -231 -231 -382 -474 -483 -772 -213 -632 -101
-1303 307 -1844 79 -104 269 -294 375 -374 269 -203 562 -329 907 -388 139
-23 481 -23 620 0 442 76 797 258 1106 566 231 231 382 474 483 772 213 632
101 1303 -307 1844 -79 104 -269 294 -375 374 -268 202 -568 331 -902 386 -90
15 -411 28 -475 19z m293 -94 c268 -21 492 -82 727 -200 484 -243 847 -686
985 -1202 46 -174 62 -301 62 -493 0 -192 -16 -319 -62 -493 -138 -516 -501
-959 -985 -1202 -708 -355 -1545 -243 -2139 286 -269 239 -473 571 -566 916
-46 174 -62 301 -62 493 0 192 16 319 62 493 138 516 501 959 985 1202 261
131 496 190 835 209 14 0 85 -4 158 -9z"/>
<path d="M1095 3311 c-51 -23 -93 -65 -116 -116 -18 -38 -19 -89 -19 -970 l0
-930 24 -51 c52 -112 183 -162 309 -117 42 15 77 48 270 253 122 129 276 289
344 355 l122 120 301 -287 c166 -157 314 -304 330 -326 18 -25 49 -50 85 -67
48 -24 64 -27 118 -23 35 3 76 12 92 21 43 22 94 75 112 116 23 53 20 138 -5
187 -13 25 -109 126 -254 265 -519 498 -471 448 -454 472 8 12 158 174 334
360 293 309 321 342 337 392 36 114 -25 243 -137 289 -50 21 -143 20 -191 -3
-26 -12 -163 -150 -420 -423 -210 -222 -410 -433 -444 -469 -33 -35 -137 -145
-230 -243 l-168 -179 -5 619 c-5 679 -2 643 -67 708 -42 43 -99 66 -168 66
-37 0 -75 -7 -100 -19z m165 -89 c43 -21 80 -75 80 -117 0 -65 -75 -135 -145
-135 -70 0 -145 70 -145 135 0 65 75 135 145 135 17 0 46 -8 65 -18z m1590
-58 c111 -45 120 -193 14 -244 -94 -46 -194 21 -194 128 0 52 28 97 73 117 43
18 59 18 107 -1z m-191 -297 c23 -21 55 -40 72 -44 16 -3 32 -10 35 -14 3 -5
-110 -131 -252 -280 l-257 -270 -66 64 c-43 42 -83 71 -114 82 l-47 18 47 51
c27 28 149 158 272 288 l224 238 22 -48 c12 -26 41 -64 64 -85z m-1464 18 c54
0 78 5 108 22 l37 22 0 -552 -1 -552 -144 -150 -144 -150 -1 702 0 702 38 -22
c29 -17 53 -22 107 -22z m853 -569 c51 -27 75 -62 80 -118 4 -49 1 -56 -31
-93 -33 -38 -37 -40 -96 -40 -56 0 -63 3 -97 36 -65 65 -56 164 19 209 38 23
87 26 125 6z m-252 -227 c16 -29 47 -64 74 -84 98 -72 116 -36 -184 -353 -241
-256 -265 -278 -271 -255 -17 67 -115 163 -167 163 -10 0 -18 4 -18 8 0 8 528
572 535 572 2 0 16 -23 31 -51z m745 -226 l270 -258 -39 -13 c-54 -18 -107
-65 -132 -118 l-22 -45 -72 68 c-39 38 -157 151 -263 252 l-192 183 86 94 c47
52 88 94 90 94 2 0 126 -116 274 -257z m378 -371 c37 -20 71 -73 71 -110 0
-13 -8 -40 -17 -59 -44 -93 -189 -99 -243 -10 -72 117 64 246 189 179z m-1657
-39 c93 -54 87 -192 -9 -235 -94 -42 -193 24 -193 128 0 104 109 162 202 107z"/>
<path d="M15785 2885 c-223 -46 -392 -219 -451 -460 -25 -101 -25 -343 -1
-448 24 -102 76 -204 140 -274 109 -119 238 -173 433 -181 146 -6 239 12 345
65 150 75 251 216 300 418 30 125 31 326 1 437 -60 223 -190 367 -387 428 -92
28 -279 36 -380 15z m302 -221 c134 -65 200 -232 190 -479 -11 -254 -77 -385
-222 -441 -62 -23 -204 -16 -260 13 -84 44 -144 137 -171 266 -20 91 -14 348
9 418 60 184 172 266 342 253 36 -2 81 -14 112 -30z"/>
<path d="M11110 2215 l0 -665 145 0 145 0 0 665 0 665 -145 0 -145 0 0 -665z"/>
<path d="M14560 2865 c-145 -33 -285 -137 -359 -267 -96 -169 -126 -425 -76
-638 54 -225 214 -384 428 -425 255 -49 471 24 585 195 39 58 72 161 72 224
l0 26 -149 0 -148 0 -7 -48 c-8 -61 -53 -133 -105 -168 -53 -35 -151 -44 -214
-20 -126 48 -187 190 -187 436 0 312 106 490 291 490 69 0 104 -12 142 -48 36
-34 51 -63 67 -129 l12 -53 144 0 c112 0 144 3 144 13 0 7 -5 40 -11 73 -28
151 -133 268 -295 325 -78 28 -243 35 -334 14z"/>
<path d="M4490 2760 l0 -110 195 0 195 0 0 -550 0 -550 145 0 145 0 0 550 0
550 195 0 195 0 0 110 0 110 -535 0 -535 0 0 -110z"/>
<path d="M5680 2210 l0 -660 140 0 140 0 0 290 0 290 250 0 250 0 0 -290 0
-290 145 0 145 0 0 660 0 660 -145 0 -145 0 0 -265 0 -265 -247 2 -248 3 -3
263 -2 262 -140 0 -140 0 0 -660z"/>
<path d="M6980 2210 l0 -660 455 0 455 0 0 110 0 110 -315 0 -315 0 2 178 3
177 283 3 282 2 0 105 0 105 -282 2 -283 3 0 155 0 155 303 3 302 2 0 105 0
105 -445 0 -445 0 0 -660z"/>
<path d="M8530 2210 l0 -660 145 0 145 0 2 331 3 331 228 -331 228 -331 175 0
c96 0 174 2 174 5 0 3 -117 168 -261 365 l-260 360 239 293 240 292 -156 3
c-86 1 -161 1 -168 -2 -6 -2 -107 -129 -225 -281 l-214 -276 -3 281 -2 280
-145 0 -145 0 0 -660z"/>
<path d="M9740 2210 l0 -660 130 0 130 0 1 313 c1 171 4 412 8 535 l6 223 172
-368 c94 -202 207 -443 250 -535 l78 -168 198 0 197 0 0 660 0 660 -135 0
-135 0 -1 -512 c0 -399 -3 -507 -12 -488 -6 14 -116 243 -243 510 l-232 485
-206 3 -206 2 0 -660z"/>
<path d="M11610 2210 l0 -660 140 0 140 0 0 280 0 280 265 0 265 0 0 110 0
110 -262 2 -263 3 -3 163 -2 162 285 0 285 0 0 105 0 105 -425 0 -425 0 0
-660z"/>
<path d="M12610 2210 l0 -660 450 0 450 0 0 110 0 110 -310 0 -310 0 0 180 0
180 280 0 280 0 0 105 0 105 -280 0 -280 0 0 160 0 160 300 0 300 0 0 105 0
105 -440 0 -440 0 0 -660z"/>
<path d="M16740 2210 l0 -660 130 0 130 0 1 558 c0 335 4 549 9 537 5 -11 85
-262 177 -557 l167 -538 118 0 117 0 65 203 c35 111 115 362 178 557 l113 354
3 -557 2 -557 140 0 140 0 0 660 0 660 -225 0 c-172 0 -227 -3 -230 -12 -2 -7
-68 -219 -147 -470 -79 -252 -145 -458 -148 -458 -3 0 -66 210 -141 468 l-136
467 -232 3 -231 2 0 -660z"/>
<path d="M18440 2211 l0 -661 145 0 145 0 0 255 0 255 119 0 c222 0 334 28
418 103 152 137 164 436 25 580 -20 21 -59 50 -87 64 -100 52 -129 55 -457 60
l-308 5 0 -661z m556 428 c129 -40 138 -261 14 -333 -29 -18 -56 -22 -162 -25
l-128 -3 0 185 0 186 58 4 c73 5 178 -2 218 -14z"/>
<path d="M19889 2843 c-6 -16 -98 -269 -204 -563 -106 -294 -209 -579 -229
-632 l-35 -98 137 0 138 0 28 88 c16 48 37 111 48 140 l19 52 263 0 263 0 44
-137 45 -138 148 -3 c81 -1 145 1 142 6 -2 4 -100 282 -216 617 -117 336 -219
629 -227 653 l-15 42 -169 0 -169 0 -11 -27z m351 -788 c0 -3 -83 -5 -185 -5
-102 0 -185 3 -185 6 0 5 158 462 180 519 11 28 17 12 101 -243 49 -149 89
-274 89 -277z"/>
<path d="M20840 2210 l0 -660 130 0 130 0 2 543 3 542 48 -100 c26 -55 141
-299 255 -542 l207 -443 197 0 198 0 0 660 0 660 -135 0 -135 0 -1 -512 0
-513 -25 50 c-13 28 -123 257 -244 510 l-219 460 -206 3 -205 2 0 -660z"/>
<path d="M22196 2743 c37 -71 138 -256 223 -413 l156 -285 3 -247 3 -248 139
0 140 0 0 244 0 245 220 410 c121 226 220 413 220 416 0 3 -65 5 -143 5 l-144
0 -139 -300 c-134 -290 -139 -299 -152 -273 -7 16 -68 150 -136 298 l-123 270
-167 3 -168 2 68 -127z"/>
</g>
</svg>
