<?xml version="1.0" standalone="no"?>
<!DOCTYPE svg PUBLIC "-//W3C//DTD SVG 20010904//EN"
 "http://www.w3.org/TR/2001/REC-SVG-20010904/DTD/svg10.dtd">
<svg version="1.0" xmlns="http://www.w3.org/2000/svg"
 width="204.000000pt" height="213.000000pt" viewBox="0 0 204.000000 213.000000"
 preserveAspectRatio="xMidYMid meet">
<metadata>
Created by potrace 1.16, written by Peter Selinger 2001-2019
</metadata>
<g transform="translate(0.000000,213.000000) scale(0.100000,-0.100000)"
fill="#000000" stroke="none">
<path d="M746 2105 c-108 -31 -263 -106 -343 -168 -87 -66 -217 -208 -263
-286 -56 -94 -106 -220 -125 -319 -25 -123 -17 -409 14 -504 75 -232 207 -411
406 -553 102 -73 135 -89 259 -130 164 -54 343 -66 516 -34 123 23 266 79 360
141 102 67 255 214 311 298 46 70 113 217 136 301 27 95 26 425 -1 524 -45
166 -132 320 -250 444 -130 135 -245 206 -436 273 -94 32 -98 32 -295 35 -187
2 -206 1 -289 -22z m519 -55 c167 -45 313 -130 438 -255 262 -262 351 -639
233 -988 -45 -131 -113 -242 -218 -352 -135 -142 -274 -225 -464 -277 -115
-31 -334 -31 -457 0 -356 89 -624 351 -718 702 -32 118 -33 347 -1 462 92 335
319 584 627 687 50 16 119 34 155 40 102 16 311 6 405 -19z"/>
<path d="M553 1655 c-65 -28 -66 -31 -71 -525 -5 -466 -2 -502 38 -553 29 -37
83 -50 128 -31 22 9 100 81 205 189 93 96 173 175 177 175 4 0 84 -74 176
-163 93 -90 179 -169 191 -175 12 -7 38 -12 59 -12 47 0 114 62 114 106 0 54
-20 78 -248 297 l-133 127 58 63 c31 34 98 105 149 157 116 120 144 162 144
215 0 46 -21 76 -67 99 -39 20 -66 20 -101 2 -16 -8 -165 -159 -332 -337
l-305 -322 -3 308 c-2 296 -3 308 -24 337 -21 31 -72 58 -105 58 -10 -1 -32
-7 -50 -15z m815 -240 c12 -5 22 -13 22 -17 0 -7 -65 -78 -188 -206 l-53 -55
-27 25 c-15 14 -37 29 -49 33 l-23 6 28 37 c15 20 60 70 100 111 40 42 85 90
100 107 l26 30 21 -30 c11 -17 31 -35 43 -41z m-793 25 c18 -7 39 -7 61 -1
l34 9 0 -272 0 -272 -57 -60 -56 -59 -7 30 c-8 32 -13 635 -6 635 3 0 17 -5
31 -10z m374 -455 l30 -30 -90 -95 c-49 -52 -106 -113 -125 -134 l-35 -39 -24
36 c-14 19 -34 38 -45 42 -20 6 -20 6 1 33 11 15 68 78 127 140 97 103 107
112 119 95 7 -10 26 -31 42 -48z m383 -114 l78 -75 -24 -15 c-13 -9 -32 -27
-43 -40 l-19 -23 -124 120 c-135 132 -133 125 -71 179 l25 22 51 -47 c27 -26
85 -80 127 -121z"/>
</g>
</svg>
