<?xml version="1.0" encoding="UTF-8"?>
<svg xmlns="http://www.w3.org/2000/svg" xmlns:xlink="http://www.w3.org/1999/xlink" width="202pt" height="34pt" viewBox="0 0 202 34" version="1.1">
<g id="surface1">
<path style=" stroke:none;fill-rule:nonzero;fill:rgb(0%,0%,0%);fill-opacity:1;" d="M 14.792969 0.046875 C 14.664062 0.0625 14.234375 0.121094 13.832031 0.167969 C 12.878906 0.289062 11.203125 0.714844 10.253906 1.089844 C 8.082031 1.941406 6.40625 3.046875 4.722656 4.722656 C 2.871094 6.574219 1.660156 8.523438 0.851562 10.914062 C -0.859375 15.980469 0.0390625 21.363281 3.3125 25.699219 C 3.945312 26.535156 5.46875 28.058594 6.320312 28.699219 C 8.476562 30.328125 10.824219 31.335938 13.589844 31.8125 C 14.707031 31.996094 17.449219 31.996094 18.5625 31.8125 C 22.105469 31.203125 24.953125 29.742188 27.429688 27.273438 C 29.285156 25.417969 30.492188 23.472656 31.304688 21.082031 C 33.011719 16.015625 32.113281 10.632812 28.84375 6.292969 C 28.207031 5.460938 26.683594 3.9375 25.835938 3.296875 C 23.6875 1.675781 21.28125 0.640625 18.601562 0.199219 C 17.882812 0.0820312 15.308594 -0.0234375 14.792969 0.046875 Z M 17.144531 0.800781 C 19.292969 0.96875 21.089844 1.460938 22.972656 2.40625 C 26.855469 4.355469 29.765625 7.90625 30.871094 12.042969 C 31.238281 13.441406 31.367188 14.457031 31.367188 15.996094 C 31.367188 17.539062 31.238281 18.554688 30.871094 19.949219 C 29.765625 24.089844 26.855469 27.640625 22.972656 29.589844 C 17.296875 32.4375 10.585938 31.539062 5.820312 27.296875 C 3.664062 25.378906 2.027344 22.71875 1.28125 19.949219 C 0.914062 18.554688 0.785156 17.539062 0.785156 15.996094 C 0.785156 14.457031 0.914062 13.441406 1.28125 12.042969 C 2.390625 7.90625 5.300781 4.355469 9.179688 2.40625 C 11.273438 1.355469 13.160156 0.882812 15.875 0.730469 C 15.988281 0.730469 16.558594 0.761719 17.144531 0.800781 Z M 17.144531 0.800781 "/>
<path style=" stroke:none;fill-rule:nonzero;fill:rgb(0%,0%,0%);fill-opacity:1;" d="M 8.78125 7.449219 C 8.371094 7.632812 8.035156 7.972656 7.851562 8.378906 C 7.707031 8.683594 7.699219 9.09375 7.699219 16.15625 L 7.699219 23.617188 L 7.890625 24.023438 C 8.308594 24.921875 9.359375 25.324219 10.367188 24.960938 C 10.703125 24.84375 10.984375 24.578125 12.53125 22.933594 C 13.511719 21.898438 14.746094 20.617188 15.292969 20.085938 L 16.269531 19.125 L 18.683594 21.425781 C 20.015625 22.683594 21.199219 23.863281 21.328125 24.039062 C 21.472656 24.242188 21.722656 24.441406 22.011719 24.578125 C 22.394531 24.769531 22.523438 24.792969 22.957031 24.761719 C 23.238281 24.738281 23.566406 24.667969 23.695312 24.59375 C 24.039062 24.417969 24.449219 23.992188 24.59375 23.664062 C 24.777344 23.238281 24.753906 22.558594 24.550781 22.164062 C 24.449219 21.964844 23.679688 21.152344 22.515625 20.039062 C 18.355469 16.046875 18.738281 16.445312 18.875 16.253906 C 18.941406 16.15625 20.140625 14.859375 21.554688 13.367188 C 23.902344 10.890625 24.128906 10.625 24.253906 10.222656 C 24.542969 9.308594 24.054688 8.277344 23.15625 7.90625 C 22.757812 7.738281 22.011719 7.746094 21.625 7.929688 C 21.417969 8.027344 20.320312 9.132812 18.257812 11.324219 C 16.574219 13.101562 14.96875 14.792969 14.699219 15.082031 C 14.433594 15.363281 13.597656 16.246094 12.855469 17.03125 L 11.507812 18.46875 L 11.464844 13.503906 C 11.425781 8.058594 11.449219 8.347656 10.929688 7.828125 C 10.59375 7.480469 10.136719 7.296875 9.582031 7.296875 C 9.285156 7.296875 8.980469 7.351562 8.78125 7.449219 Z M 10.101562 8.164062 C 10.449219 8.332031 10.746094 8.765625 10.746094 9.101562 C 10.746094 9.621094 10.144531 10.183594 9.582031 10.183594 C 9.019531 10.183594 8.417969 9.621094 8.417969 9.101562 C 8.417969 8.582031 9.019531 8.019531 9.582031 8.019531 C 9.71875 8.019531 9.949219 8.082031 10.101562 8.164062 Z M 22.851562 8.628906 C 23.742188 8.988281 23.816406 10.175781 22.964844 10.585938 C 22.210938 10.953125 21.410156 10.417969 21.410156 9.558594 C 21.410156 9.140625 21.632812 8.78125 21.996094 8.621094 C 22.339844 8.476562 22.46875 8.476562 22.851562 8.628906 Z M 21.320312 11.011719 C 21.503906 11.179688 21.761719 11.332031 21.898438 11.363281 C 22.027344 11.386719 22.15625 11.441406 22.179688 11.476562 C 22.203125 11.515625 21.296875 12.527344 20.160156 13.71875 L 18.097656 15.886719 L 17.566406 15.371094 C 17.222656 15.035156 16.902344 14.804688 16.652344 14.714844 L 16.277344 14.570312 L 16.652344 14.160156 C 16.871094 13.9375 17.847656 12.894531 18.835938 11.851562 L 20.632812 9.945312 L 20.808594 10.328125 C 20.902344 10.535156 21.136719 10.839844 21.320312 11.011719 Z M 9.582031 10.867188 C 10.015625 10.867188 10.207031 10.824219 10.449219 10.6875 L 10.746094 10.511719 L 10.746094 14.9375 L 10.738281 19.367188 L 9.582031 20.570312 L 8.425781 21.769531 L 8.417969 16.140625 L 8.417969 10.511719 L 8.722656 10.6875 C 8.957031 10.824219 9.148438 10.867188 9.582031 10.867188 Z M 16.421875 15.429688 C 16.832031 15.644531 17.023438 15.925781 17.0625 16.375 C 17.09375 16.765625 17.070312 16.824219 16.816406 17.121094 C 16.550781 17.425781 16.519531 17.441406 16.042969 17.441406 C 15.597656 17.441406 15.539062 17.417969 15.265625 17.152344 C 14.746094 16.632812 14.816406 15.835938 15.417969 15.476562 C 15.722656 15.292969 16.117188 15.269531 16.421875 15.429688 Z M 14.402344 17.25 C 14.53125 17.480469 14.777344 17.761719 14.996094 17.921875 C 15.78125 18.5 15.925781 18.210938 13.519531 20.753906 C 11.585938 22.804688 11.394531 22.980469 11.347656 22.796875 C 11.210938 22.261719 10.425781 21.492188 10.007812 21.492188 C 9.925781 21.492188 9.863281 21.457031 9.863281 21.425781 C 9.863281 21.363281 14.097656 16.839844 14.152344 16.839844 C 14.167969 16.839844 14.28125 17.023438 14.402344 17.25 Z M 20.375 19.0625 L 22.539062 21.128906 L 22.226562 21.234375 C 21.792969 21.378906 21.367188 21.753906 21.167969 22.179688 L 20.992188 22.542969 L 20.414062 21.996094 C 20.101562 21.691406 19.15625 20.785156 18.304688 19.976562 L 16.765625 18.507812 L 17.457031 17.753906 C 17.832031 17.335938 18.160156 17 18.179688 17 C 18.195312 17 19.1875 17.929688 20.375 19.0625 Z M 23.40625 22.035156 C 23.703125 22.195312 23.976562 22.621094 23.976562 22.917969 C 23.976562 23.023438 23.910156 23.238281 23.839844 23.390625 C 23.484375 24.136719 22.324219 24.183594 21.890625 23.472656 C 21.3125 22.53125 22.402344 21.5 23.40625 22.035156 Z M 10.121094 22.347656 C 10.863281 22.78125 10.816406 23.886719 10.046875 24.234375 C 9.292969 24.570312 8.5 24.039062 8.5 23.207031 C 8.5 22.371094 9.375 21.90625 10.121094 22.347656 Z M 10.121094 22.347656 "/>
<path style=" stroke:none;fill-rule:nonzero;fill:rgb(0%,0%,0%);fill-opacity:1;" d="M 126.570312 10.867188 C 124.78125 11.234375 123.425781 12.621094 122.953125 14.554688 C 122.753906 15.363281 122.753906 17.304688 122.945312 18.148438 C 123.140625 18.964844 123.554688 19.78125 124.070312 20.34375 C 124.941406 21.296875 125.976562 21.730469 127.539062 21.796875 C 128.710938 21.84375 129.457031 21.699219 130.308594 21.273438 C 131.511719 20.671875 132.320312 19.542969 132.710938 17.921875 C 132.953125 16.917969 132.960938 15.308594 132.722656 14.417969 C 132.238281 12.628906 131.199219 11.476562 129.617188 10.984375 C 128.878906 10.761719 127.378906 10.695312 126.570312 10.867188 Z M 128.992188 12.636719 C 130.066406 13.160156 130.597656 14.5 130.515625 16.480469 C 130.425781 18.515625 129.898438 19.566406 128.734375 20.015625 C 128.238281 20.199219 127.101562 20.144531 126.652344 19.910156 C 125.976562 19.558594 125.496094 18.8125 125.28125 17.777344 C 125.121094 17.046875 125.167969 14.988281 125.351562 14.425781 C 125.832031 12.949219 126.730469 12.292969 128.09375 12.398438 C 128.382812 12.414062 128.742188 12.507812 128.992188 12.636719 Z M 128.992188 12.636719 "/>
<path style=" stroke:none;fill-rule:nonzero;fill:rgb(0%,0%,0%);fill-opacity:1;" d="M 89.085938 16.238281 L 89.085938 21.570312 L 91.410156 21.570312 L 91.410156 10.90625 L 89.085938 10.90625 Z M 89.085938 16.238281 "/>
<path style=" stroke:none;fill-rule:nonzero;fill:rgb(0%,0%,0%);fill-opacity:1;" d="M 116.75 11.027344 C 115.585938 11.289062 114.464844 12.125 113.871094 13.167969 C 113.101562 14.523438 112.859375 16.574219 113.261719 18.28125 C 113.691406 20.085938 114.976562 21.363281 116.691406 21.691406 C 118.738281 22.082031 120.46875 21.5 121.382812 20.128906 C 121.695312 19.664062 121.960938 18.835938 121.960938 18.332031 L 121.960938 18.121094 L 119.578125 18.121094 L 119.523438 18.507812 C 119.457031 18.996094 119.097656 19.574219 118.679688 19.855469 C 118.253906 20.136719 117.46875 20.207031 116.964844 20.015625 C 115.953125 19.628906 115.464844 18.492188 115.464844 16.519531 C 115.464844 14.015625 116.316406 12.589844 117.796875 12.589844 C 118.351562 12.589844 118.632812 12.6875 118.9375 12.972656 C 119.226562 13.246094 119.347656 13.480469 119.472656 14.007812 L 119.570312 14.433594 L 120.726562 14.433594 C 121.625 14.433594 121.878906 14.410156 121.878906 14.328125 C 121.878906 14.273438 121.839844 14.007812 121.792969 13.746094 C 121.566406 12.535156 120.726562 11.59375 119.425781 11.136719 C 118.800781 10.914062 117.476562 10.859375 116.75 11.027344 Z M 116.75 11.027344 "/>
<path style=" stroke:none;fill-rule:nonzero;fill:rgb(0%,0%,0%);fill-opacity:1;" d="M 36.003906 11.867188 L 36.003906 12.75 L 39.128906 12.75 L 39.128906 21.570312 L 41.457031 21.570312 L 41.457031 12.75 L 44.582031 12.75 L 44.582031 10.984375 L 36.003906 10.984375 Z M 36.003906 11.867188 "/>
<path style=" stroke:none;fill-rule:nonzero;fill:rgb(0%,0%,0%);fill-opacity:1;" d="M 45.542969 16.277344 L 45.542969 21.570312 L 47.789062 21.570312 L 47.789062 16.917969 L 51.800781 16.917969 L 51.800781 21.570312 L 54.125 21.570312 L 54.125 10.984375 L 51.800781 10.984375 L 51.800781 15.234375 L 49.820312 15.21875 L 47.828125 15.195312 L 47.804688 13.085938 L 47.789062 10.984375 L 45.542969 10.984375 Z M 45.542969 16.277344 "/>
<path style=" stroke:none;fill-rule:nonzero;fill:rgb(0%,0%,0%);fill-opacity:1;" d="M 55.96875 16.277344 L 55.96875 21.570312 L 63.265625 21.570312 L 63.265625 19.804688 L 58.214844 19.804688 L 58.230469 18.378906 L 58.253906 16.960938 L 60.523438 16.9375 L 62.785156 16.917969 L 62.785156 15.234375 L 60.523438 15.21875 L 58.253906 15.195312 L 58.253906 12.710938 L 60.683594 12.6875 L 63.105469 12.667969 L 63.105469 10.984375 L 55.96875 10.984375 Z M 55.96875 16.277344 "/>
<path style=" stroke:none;fill-rule:nonzero;fill:rgb(0%,0%,0%);fill-opacity:1;" d="M 68.398438 16.277344 L 68.398438 21.570312 L 70.722656 21.570312 L 70.738281 18.917969 L 70.761719 16.261719 L 72.589844 18.917969 L 74.417969 21.570312 L 75.820312 21.570312 C 76.59375 21.570312 77.21875 21.554688 77.21875 21.53125 C 77.21875 21.507812 76.277344 20.183594 75.125 18.605469 L 73.039062 15.71875 L 74.957031 13.367188 L 76.878906 11.027344 L 75.628906 11 C 74.941406 10.992188 74.339844 10.992188 74.28125 11.019531 C 74.234375 11.035156 73.425781 12.050781 72.476562 13.269531 L 70.761719 15.484375 L 70.738281 13.230469 L 70.722656 10.984375 L 68.398438 10.984375 Z M 68.398438 16.277344 "/>
<path style=" stroke:none;fill-rule:nonzero;fill:rgb(0%,0%,0%);fill-opacity:1;" d="M 78.097656 16.277344 L 78.097656 21.570312 L 80.183594 21.570312 L 80.191406 19.0625 C 80.199219 17.691406 80.222656 15.757812 80.257812 14.769531 L 80.304688 12.984375 L 81.683594 15.933594 C 82.4375 17.554688 83.34375 19.484375 83.6875 20.222656 L 84.3125 21.570312 L 87.480469 21.570312 L 87.480469 10.984375 L 85.316406 10.984375 L 85.308594 15.089844 C 85.308594 18.292969 85.285156 19.15625 85.210938 19.003906 C 85.164062 18.890625 84.28125 17.054688 83.261719 14.914062 L 81.402344 11.027344 L 79.75 11 L 78.097656 10.984375 Z M 78.097656 16.277344 "/>
<path style=" stroke:none;fill-rule:nonzero;fill:rgb(0%,0%,0%);fill-opacity:1;" d="M 93.09375 16.277344 L 93.09375 21.570312 L 95.339844 21.570312 L 95.339844 17.082031 L 99.589844 17.082031 L 99.589844 15.316406 L 97.488281 15.300781 L 95.378906 15.277344 L 95.355469 13.96875 L 95.339844 12.667969 L 99.910156 12.667969 L 99.910156 10.984375 L 93.09375 10.984375 Z M 93.09375 16.277344 "/>
<path style=" stroke:none;fill-rule:nonzero;fill:rgb(0%,0%,0%);fill-opacity:1;" d="M 101.113281 16.277344 L 101.113281 21.570312 L 108.328125 21.570312 L 108.328125 19.804688 L 103.355469 19.804688 L 103.355469 16.917969 L 107.847656 16.917969 L 107.847656 15.234375 L 103.355469 15.234375 L 103.355469 12.667969 L 108.167969 12.667969 L 108.167969 10.984375 L 101.113281 10.984375 Z M 101.113281 16.277344 "/>
<path style=" stroke:none;fill-rule:nonzero;fill:rgb(0%,0%,0%);fill-opacity:1;" d="M 134.226562 16.277344 L 134.226562 21.570312 L 136.3125 21.570312 L 136.320312 17.097656 C 136.320312 14.410156 136.351562 12.695312 136.394531 12.789062 C 136.433594 12.878906 137.074219 14.890625 137.8125 17.257812 L 139.152344 21.570312 L 141.035156 21.570312 L 141.558594 19.941406 C 141.835938 19.054688 142.480469 17.039062 142.984375 15.476562 L 143.890625 12.636719 L 143.914062 17.105469 L 143.929688 21.570312 L 146.175781 21.570312 L 146.175781 10.984375 L 144.371094 10.984375 C 142.992188 10.984375 142.550781 11.011719 142.527344 11.082031 C 142.511719 11.136719 141.980469 12.839844 141.347656 14.851562 C 140.714844 16.871094 140.1875 18.523438 140.160156 18.523438 C 140.136719 18.523438 139.632812 16.839844 139.03125 14.769531 L 137.941406 11.027344 L 136.082031 11 L 134.226562 10.984375 Z M 134.226562 16.277344 "/>
<path style=" stroke:none;fill-rule:nonzero;fill:rgb(0%,0%,0%);fill-opacity:1;" d="M 147.859375 16.269531 L 147.859375 21.570312 L 150.183594 21.570312 L 150.183594 17.480469 L 151.140625 17.480469 C 152.917969 17.480469 153.816406 17.257812 154.492188 16.65625 C 155.710938 15.554688 155.804688 13.160156 154.691406 12.003906 C 154.53125 11.835938 154.21875 11.601562 153.992188 11.492188 C 153.191406 11.074219 152.960938 11.050781 150.328125 11.011719 L 147.859375 10.96875 Z M 152.316406 12.839844 C 153.351562 13.160156 153.425781 14.929688 152.429688 15.507812 C 152.199219 15.652344 151.980469 15.683594 151.132812 15.707031 L 150.105469 15.734375 L 150.105469 12.757812 L 150.570312 12.726562 C 151.15625 12.6875 151.996094 12.742188 152.316406 12.839844 Z M 152.316406 12.839844 "/>
<path style=" stroke:none;fill-rule:nonzero;fill:rgb(0%,0%,0%);fill-opacity:1;" d="M 159.476562 11.203125 C 159.429688 11.332031 158.691406 13.359375 157.84375 15.71875 C 156.992188 18.074219 156.167969 20.359375 156.007812 20.785156 L 155.726562 21.570312 L 157.929688 21.570312 L 158.15625 20.863281 C 158.285156 20.480469 158.453125 19.976562 158.539062 19.742188 L 158.691406 19.324219 L 162.910156 19.324219 L 163.261719 20.425781 L 163.625 21.53125 L 164.8125 21.554688 C 165.460938 21.5625 165.972656 21.546875 165.949219 21.507812 C 165.933594 21.472656 165.148438 19.246094 164.21875 16.558594 C 163.277344 13.863281 162.460938 11.515625 162.398438 11.324219 L 162.277344 10.984375 L 159.566406 10.984375 Z M 162.292969 17.519531 C 162.292969 17.546875 161.628906 17.5625 160.808594 17.5625 C 159.992188 17.5625 159.324219 17.539062 159.324219 17.511719 C 159.324219 17.472656 160.59375 13.808594 160.769531 13.351562 C 160.859375 13.125 160.90625 13.253906 161.578125 15.300781 C 161.972656 16.496094 162.292969 17.496094 162.292969 17.519531 Z M 162.292969 17.519531 "/>
<path style=" stroke:none;fill-rule:nonzero;fill:rgb(0%,0%,0%);fill-opacity:1;" d="M 167.105469 16.277344 L 167.105469 21.570312 L 169.1875 21.570312 L 169.203125 17.214844 L 169.230469 12.871094 L 169.613281 13.671875 C 169.820312 14.113281 170.746094 16.070312 171.660156 18.019531 L 173.316406 21.570312 L 176.484375 21.570312 L 176.484375 10.984375 L 174.320312 10.984375 L 174.3125 15.089844 L 174.3125 19.207031 L 174.113281 18.804688 C 174.007812 18.578125 173.125 16.742188 172.15625 14.714844 L 170.398438 11.027344 L 168.746094 11 L 167.105469 10.984375 Z M 167.105469 16.277344 "/>
<path style=" stroke:none;fill-rule:nonzero;fill:rgb(0%,0%,0%);fill-opacity:1;" d="M 177.976562 12.003906 C 178.273438 12.574219 179.082031 14.058594 179.765625 15.316406 L 181.015625 17.601562 L 181.039062 19.582031 L 181.0625 21.570312 L 183.300781 21.570312 L 183.300781 17.648438 L 185.066406 14.363281 C 186.035156 12.550781 186.828125 11.050781 186.828125 11.027344 C 186.828125 11 186.308594 10.984375 185.683594 10.984375 L 184.527344 10.984375 L 183.414062 13.390625 C 182.339844 15.71875 182.296875 15.789062 182.195312 15.582031 C 182.136719 15.453125 181.648438 14.378906 181.105469 13.191406 L 180.117188 11.027344 L 178.777344 11 L 177.429688 10.984375 Z M 177.976562 12.003906 "/>
</g>
</svg>
