<?xml version="1.0" encoding="UTF-8"?>
<svg xmlns="http://www.w3.org/2000/svg" xmlns:xlink="http://www.w3.org/1999/xlink" width="202pt" height="34pt" viewBox="0 0 202 34" version="1.1">
<g id="surface1">
<path style=" stroke:none;fill-rule:evenodd;fill:rgb(16.862745%,63.921569%,98.431373%);fill-opacity:1;" d="M 14.140625 0.898438 C 7.820312 1.660156 2.476562 6.523438 1.128906 12.730469 C -1.59375 25.300781 11.332031 35.355469 22.9375 29.691406 C 27.136719 27.636719 30.359375 23.367188 31.144531 18.808594 C 32.917969 8.523438 24.488281 -0.355469 14.140625 0.898438 M 10.570312 7.570312 C 10.796875 7.703125 11.054688 7.957031 11.199219 8.1875 L 11.445312 8.574219 L 11.445312 13.507812 C 11.445312 16.21875 11.480469 18.4375 11.515625 18.4375 C 11.554688 18.4375 12.183594 17.800781 12.914062 17.019531 C 13.640625 16.242188 14.566406 15.261719 14.96875 14.84375 C 15.371094 14.425781 16.679688 13.035156 17.878906 11.757812 C 21.722656 7.65625 21.574219 7.785156 22.410156 7.78125 C 23.753906 7.777344 24.710938 9.203125 24.195312 10.441406 C 24.113281 10.636719 23.058594 11.824219 21.4375 13.546875 C 19.992188 15.082031 18.8125 16.382812 18.8125 16.4375 C 18.8125 16.492188 19.644531 17.332031 20.664062 18.304688 C 25.09375 22.539062 25.109375 22.566406 24.585938 23.726562 C 23.933594 25.171875 22.464844 25.242188 21.167969 23.894531 C 20.53125 23.234375 17.207031 20.035156 16.480469 19.382812 L 16.257812 19.183594 L 15.164062 20.269531 C 14.5625 20.867188 13.324219 22.15625 12.410156 23.132812 C 11.175781 24.449219 10.65625 24.945312 10.402344 25.050781 C 9.375 25.480469 8.242188 24.980469 7.792969 23.898438 C 7.605469 23.449219 7.585938 8.960938 7.773438 8.519531 C 8.234375 7.414062 9.546875 6.96875 10.570312 7.570312 "/>
<path style=" stroke:none;fill-rule:evenodd;fill:rgb(1.568627%,1.568627%,1.568627%);fill-opacity:1;" d="M 13.214844 0.144531 C 12.484375 0.273438 10.769531 0.765625 10.3125 0.972656 C 10.171875 1.039062 9.660156 1.265625 9.175781 1.480469 C 8.253906 1.886719 7.238281 2.476562 6.734375 2.898438 C 6.570312 3.03125 6.277344 3.246094 6.078125 3.375 C 5.566406 3.703125 3.734375 5.539062 3.398438 6.0625 C 3.242188 6.304688 3.074219 6.527344 3.019531 6.558594 C 2.878906 6.648438 1.851562 8.269531 1.746094 8.566406 C 1.699219 8.707031 1.515625 9.117188 1.339844 9.476562 C -0.542969 13.34375 -0.488281 19.347656 1.457031 22.859375 C 1.566406 23.054688 1.679688 23.316406 1.710938 23.4375 C 1.863281 24.050781 3.523438 26.289062 4.671875 27.433594 C 6.082031 28.839844 9.082031 30.871094 9.746094 30.871094 C 9.808594 30.871094 10.019531 30.945312 10.214844 31.035156 C 13.207031 32.402344 17.78125 32.507812 21.25 31.285156 C 21.667969 31.140625 22.203125 30.953125 22.4375 30.871094 C 25.285156 29.871094 29.5625 25.855469 30.519531 23.285156 C 30.601562 23.0625 30.714844 22.800781 30.773438 22.707031 C 32.601562 19.765625 32.679688 13.195312 30.925781 9.71875 C 30.816406 9.5 30.652344 9.125 30.5625 8.886719 C 30.367188 8.371094 29.394531 6.808594 29.085938 6.515625 C 28.964844 6.40625 28.871094 6.269531 28.871094 6.21875 C 28.871094 5.972656 26.414062 3.511719 25.910156 3.25 C 25.753906 3.171875 25.539062 3.019531 25.433594 2.914062 C 24.5 1.984375 20.984375 0.5 18.859375 0.136719 C 17.792969 -0.046875 14.253906 -0.0429688 13.214844 0.144531 M 18.558594 0.882812 C 30.914062 2.992188 35.761719 17.957031 26.972656 26.847656 C 19.214844 34.695312 5.875 31.941406 1.773438 21.648438 C -1.851562 12.546875 4.203125 2.117188 13.84375 0.851562 C 14.214844 0.800781 14.632812 0.746094 14.769531 0.726562 C 15.289062 0.652344 17.828125 0.757812 18.558594 0.882812 M 9.089844 7.433594 C 8.6875 7.5625 8.347656 7.777344 8.164062 8.011719 C 7.730469 8.566406 7.742188 8.28125 7.746094 16.226562 L 7.746094 23.640625 L 7.976562 24.101562 C 8.28125 24.707031 8.804688 25.050781 9.503906 25.101562 C 10.367188 25.164062 10.480469 25.078125 12.964844 22.433594 C 14.191406 21.128906 15.230469 20.058594 15.277344 20.054688 C 15.324219 20.050781 15.558594 19.828125 15.796875 19.5625 L 16.234375 19.070312 L 16.597656 19.414062 C 19.757812 22.414062 20.679688 23.296875 21.210938 23.859375 C 22.246094 24.953125 23.242188 25.101562 24.101562 24.289062 C 25.035156 23.414062 24.847656 22.40625 23.511719 21.132812 C 23.058594 20.695312 22.210938 19.882812 21.632812 19.324219 C 21.050781 18.765625 20.148438 17.898438 19.625 17.394531 L 18.671875 16.480469 L 19.078125 16.003906 C 19.53125 15.46875 21.996094 12.820312 23.191406 11.585938 C 24.628906 10.101562 24.671875 8.828125 23.308594 8.082031 C 22.398438 7.585938 21.734375 7.777344 20.734375 8.820312 C 19.679688 9.921875 17.183594 12.578125 16.460938 13.363281 C 16.097656 13.757812 15.503906 14.386719 15.144531 14.757812 C 14.78125 15.132812 13.8125 16.15625 12.988281 17.035156 L 11.488281 18.632812 L 11.445312 13.652344 L 11.40625 8.667969 L 11.171875 8.269531 C 10.777344 7.597656 9.789062 7.203125 9.089844 7.433594 M 10.308594 8.253906 C 10.425781 8.328125 10.519531 8.445312 10.519531 8.507812 C 10.519531 8.574219 10.5625 8.625 10.609375 8.625 C 10.660156 8.625 10.675781 8.664062 10.648438 8.710938 C 10.617188 8.757812 10.625 8.796875 10.664062 8.796875 C 10.703125 8.796875 10.734375 8.949219 10.734375 9.132812 C 10.734375 9.320312 10.703125 9.472656 10.664062 9.472656 C 10.625 9.472656 10.617188 9.511719 10.648438 9.558594 C 10.675781 9.605469 10.660156 9.640625 10.609375 9.640625 C 10.5625 9.640625 10.519531 9.695312 10.519531 9.761719 C 10.519531 9.832031 10.476562 9.914062 10.421875 9.945312 C 10.355469 9.988281 10.34375 9.960938 10.382812 9.855469 C 10.429688 9.726562 10.421875 9.71875 10.3125 9.808594 C 10.242188 9.867188 10.183594 9.96875 10.183594 10.03125 C 10.183594 10.097656 10.132812 10.125 10.058594 10.09375 C 9.988281 10.070312 9.929688 10.078125 9.929688 10.121094 C 9.929688 10.160156 9.761719 10.191406 9.550781 10.195312 C 9.34375 10.195312 9.175781 10.164062 9.175781 10.125 C 9.175781 10.085938 9.140625 10.074219 9.097656 10.101562 C 9.058594 10.128906 9 10.089844 8.972656 10.015625 C 8.945312 9.945312 8.886719 9.90625 8.839844 9.933594 C 8.574219 10.101562 8.34375 9.050781 8.554688 8.617188 C 8.804688 8.097656 9.769531 7.898438 10.308594 8.253906 M 22.9375 8.664062 C 23.515625 8.90625 23.746094 9.726562 23.398438 10.300781 C 23.304688 10.453125 23.191406 10.558594 23.144531 10.527344 C 23.097656 10.5 23.0625 10.507812 23.0625 10.546875 C 23.058594 10.734375 22.359375 10.902344 22.261719 10.738281 C 22.230469 10.691406 22.171875 10.675781 22.128906 10.703125 C 22.085938 10.730469 22.050781 10.707031 22.050781 10.65625 C 22.050781 10.605469 22.015625 10.585938 21.96875 10.613281 C 21.921875 10.644531 21.882812 10.625 21.882812 10.570312 C 21.882812 10.449219 21.671875 10.234375 21.546875 10.234375 C 21.496094 10.234375 21.476562 10.195312 21.503906 10.148438 C 21.53125 10.101562 21.515625 10.066406 21.460938 10.066406 C 21.410156 10.066406 21.390625 10.027344 21.417969 9.984375 C 21.445312 9.9375 21.421875 9.828125 21.363281 9.738281 C 21.285156 9.605469 21.285156 9.542969 21.375 9.433594 C 21.4375 9.359375 21.46875 9.28125 21.445312 9.257812 C 21.390625 9.203125 21.890625 8.667969 22.054688 8.605469 C 22.277344 8.515625 22.640625 8.539062 22.9375 8.664062 M 20.742188 10.222656 C 20.726562 10.238281 20.769531 10.308594 20.835938 10.375 C 20.902344 10.445312 20.957031 10.574219 20.957031 10.664062 C 20.957031 10.753906 21.015625 10.824219 21.09375 10.824219 C 21.164062 10.824219 21.246094 10.902344 21.269531 10.996094 C 21.292969 11.085938 21.34375 11.144531 21.382812 11.117188 C 21.421875 11.09375 21.484375 11.136719 21.527344 11.210938 C 21.570312 11.285156 21.621094 11.339844 21.636719 11.332031 C 21.714844 11.300781 22.304688 11.441406 22.304688 11.492188 C 22.304688 11.519531 22.105469 11.738281 21.863281 11.972656 C 21.621094 12.207031 21.238281 12.617188 21.015625 12.882812 C 20.792969 13.148438 20.566406 13.367188 20.511719 13.371094 C 20.457031 13.375 20.183594 13.667969 19.90625 14.023438 C 19.628906 14.378906 19.316406 14.710938 19.210938 14.761719 C 18.96875 14.886719 18.683594 15.144531 18.683594 15.242188 C 18.683594 15.367188 18.230469 15.898438 18.125 15.898438 C 18.070312 15.898438 17.832031 15.671875 17.589844 15.394531 C 17.351562 15.113281 17.121094 14.90625 17.078125 14.933594 C 17.035156 14.960938 16.917969 14.921875 16.816406 14.847656 C 16.710938 14.777344 16.5625 14.714844 16.484375 14.714844 C 16.148438 14.714844 16.789062 13.929688 18.605469 12.101562 C 18.867188 11.839844 19.277344 11.390625 19.523438 11.101562 C 19.769531 10.808594 20.023438 10.570312 20.089844 10.570312 C 20.152344 10.570312 20.285156 10.441406 20.378906 10.277344 C 20.515625 10.042969 20.570312 10.007812 20.660156 10.089844 C 20.722656 10.144531 20.757812 10.207031 20.742188 10.222656 M 8.78125 10.75 C 8.835938 10.757812 8.90625 10.757812 8.941406 10.75 C 8.976562 10.746094 9.003906 10.777344 9.003906 10.816406 C 9.003906 10.859375 9.078125 10.875 9.164062 10.851562 C 9.253906 10.828125 9.347656 10.851562 9.378906 10.902344 C 9.453125 11.023438 9.761719 11.023438 9.761719 10.902344 C 9.761719 10.84375 9.84375 10.828125 9.972656 10.859375 C 10.109375 10.894531 10.183594 10.878906 10.183594 10.8125 C 10.183594 10.757812 10.207031 10.738281 10.238281 10.765625 C 10.265625 10.796875 10.390625 10.765625 10.511719 10.703125 L 10.730469 10.589844 L 10.710938 15.03125 C 10.691406 19.53125 10.679688 19.707031 10.386719 19.707031 C 10.324219 19.707031 10.214844 19.816406 10.148438 19.949219 C 10.007812 20.21875 9.261719 20.996094 8.851562 21.300781 C 8.703125 21.40625 8.605469 21.53125 8.632812 21.574219 C 8.65625 21.617188 8.640625 21.652344 8.589844 21.652344 C 8.527344 21.652344 8.5 19.980469 8.5 16.203125 C 8.5 13.207031 8.472656 10.6875 8.441406 10.601562 C 8.386719 10.453125 8.390625 10.453125 8.53125 10.59375 C 8.613281 10.675781 8.726562 10.746094 8.78125 10.75 M 127.21875 10.75 C 124.363281 10.996094 122.714844 13.046875 122.707031 16.367188 C 122.695312 19.9375 124.488281 21.914062 127.765625 21.941406 C 129.179688 21.953125 130.003906 21.695312 131.25 20.851562 C 131.625 20.597656 132.183594 19.777344 132.421875 19.136719 C 132.894531 17.855469 132.9375 17.625 132.9375 16.195312 C 132.941406 12.429688 130.847656 10.433594 127.21875 10.75 M 117.296875 10.917969 C 114.589844 11.230469 113.035156 13.28125 113.035156 16.539062 C 113.035156 19.734375 114.445312 21.554688 117.199219 21.90625 C 119.707031 22.222656 121.875 20.773438 122.023438 18.675781 L 122.0625 18.101562 L 119.519531 18.101562 L 119.472656 18.332031 C 119.261719 19.371094 118.84375 19.878906 118.058594 20.042969 C 116.035156 20.464844 114.761719 17.269531 115.816406 14.425781 C 116.640625 12.214844 119.125 12.0625 119.410156 14.210938 L 119.453125 14.546875 L 121.980469 14.546875 L 121.9375 13.992188 C 121.816406 12.46875 120.476562 11.171875 118.796875 10.957031 C 117.988281 10.851562 117.871094 10.847656 117.296875 10.917969 M 35.9375 11.882812 L 35.9375 12.855469 L 39.050781 12.855469 L 39.074219 17.273438 L 39.09375 21.695312 L 40.296875 21.71875 L 41.496094 21.742188 L 41.496094 12.855469 L 44.691406 12.855469 L 44.691406 10.910156 L 35.9375 10.910156 L 35.9375 11.882812 M 45.46875 16.300781 L 45.492188 21.695312 L 47.847656 21.695312 L 47.894531 17.085938 L 51.761719 17.085938 L 51.761719 21.734375 L 54.203125 21.734375 L 54.203125 10.910156 L 51.761719 10.910156 L 51.761719 15.140625 L 47.894531 15.140625 L 47.847656 10.953125 L 45.449219 10.90625 L 45.46875 16.300781 M 55.96875 16.324219 L 55.96875 21.734375 L 63.292969 21.734375 L 63.292969 19.792969 L 58.328125 19.792969 L 58.328125 17.085938 L 62.789062 17.085938 L 62.789062 15.140625 L 58.328125 15.140625 L 58.328125 12.855469 L 63.125 12.855469 L 63.125 10.910156 L 55.96875 10.910156 L 55.96875 16.324219 M 73.851562 11.382812 C 73.621094 11.644531 73.292969 12.0625 73.121094 12.316406 C 72.949219 12.574219 72.644531 12.976562 72.441406 13.21875 C 72.238281 13.460938 71.792969 14.035156 71.449219 14.5 L 70.828125 15.335938 L 70.804688 13.167969 L 70.78125 10.996094 L 68.34375 10.996094 L 68.363281 16.34375 L 68.386719 21.695312 L 70.785156 21.742188 L 70.785156 19.097656 C 70.789062 16.222656 70.789062 16.222656 71.21875 17.085938 C 71.277344 17.199219 71.519531 17.5625 71.757812 17.886719 C 71.996094 18.214844 72.574219 19.050781 73.046875 19.75 C 73.515625 20.445312 74.023438 21.179688 74.167969 21.375 L 74.433594 21.734375 L 75.890625 21.734375 C 77.480469 21.734375 77.539062 21.714844 77.148438 21.289062 C 77.039062 21.167969 76.835938 20.90625 76.699219 20.707031 C 76.25 20.035156 75.964844 19.632812 75.324219 18.757812 C 74.976562 18.28125 74.449219 17.546875 74.15625 17.125 C 73.859375 16.707031 73.574219 16.328125 73.519531 16.28125 C 73.070312 15.894531 73.335938 15.1875 74.160156 14.570312 C 74.238281 14.511719 74.433594 14.265625 74.59375 14.019531 C 74.757812 13.773438 75.160156 13.269531 75.492188 12.898438 C 75.820312 12.527344 76.191406 12.070312 76.316406 11.882812 C 76.441406 11.699219 76.648438 11.4375 76.777344 11.300781 C 77.144531 10.925781 77.101562 10.910156 75.636719 10.910156 L 74.265625 10.910156 L 73.851562 11.382812 M 78.042969 16.300781 L 78.0625 21.695312 L 80.253906 21.695312 L 80.300781 13.234375 L 80.792969 14.222656 C 81.0625 14.761719 81.355469 15.390625 81.441406 15.617188 C 81.523438 15.84375 81.910156 16.675781 82.300781 17.464844 C 82.6875 18.257812 83.078125 19.09375 83.164062 19.324219 C 83.253906 19.558594 83.542969 20.1875 83.808594 20.722656 L 84.292969 21.695312 L 85.914062 21.71875 L 87.53125 21.738281 L 87.53125 10.910156 L 85.261719 10.910156 L 85.257812 14.949219 C 85.257812 17.617188 85.230469 18.945312 85.175781 18.859375 C 85.128906 18.789062 85.019531 18.542969 84.933594 18.308594 C 84.84375 18.074219 84.433594 17.179688 84.015625 16.320312 C 82.546875 13.28125 81.753906 11.625 81.59375 11.273438 L 81.429688 10.914062 L 79.726562 10.914062 L 78.023438 10.910156 L 78.042969 16.300781 M 89.046875 16.28125 L 89.046875 21.652344 L 91.488281 21.652344 L 91.488281 10.910156 L 89.046875 10.910156 L 89.046875 16.28125 M 93.058594 10.964844 C 93.03125 10.996094 93.003906 13.414062 93.003906 16.335938 L 93.003906 21.652344 L 95.445312 21.652344 L 95.445312 17.167969 L 99.738281 17.167969 L 99.738281 15.222656 L 95.445312 15.222656 L 95.445312 12.859375 L 97.695312 12.835938 L 99.949219 12.8125 L 99.972656 11.863281 L 99.996094 10.910156 L 96.554688 10.910156 C 94.664062 10.910156 93.089844 10.9375 93.058594 10.964844 M 101.019531 16.300781 L 101.042969 21.695312 L 108.449219 21.695312 L 108.472656 20.742188 L 108.496094 19.792969 L 103.441406 19.792969 L 103.441406 17.085938 L 107.984375 17.085938 L 107.984375 15.140625 L 103.441406 15.140625 L 103.441406 12.859375 L 105.859375 12.835938 L 108.28125 12.8125 L 108.28125 10.953125 L 104.640625 10.929688 L 101 10.910156 L 101.019531 16.300781 M 134.136719 10.964844 C 134.101562 10.996094 134.078125 13.414062 134.078125 16.335938 L 134.078125 21.648438 L 134.265625 21.695312 C 134.371094 21.722656 134.890625 21.730469 135.425781 21.71875 L 136.390625 21.695312 L 136.433594 17.476562 L 136.476562 13.261719 L 137.003906 14.898438 C 137.292969 15.796875 137.53125 16.597656 137.53125 16.679688 C 137.527344 16.757812 137.621094 17.082031 137.730469 17.398438 C 137.839844 17.714844 138.207031 18.820312 138.539062 19.855469 L 139.148438 21.742188 L 140.117188 21.71875 L 141.089844 21.695312 L 141.828125 19.410156 C 142.234375 18.15625 142.84375 16.257812 143.183594 15.195312 L 143.796875 13.265625 L 143.882812 21.695312 L 146.238281 21.695312 L 146.261719 16.300781 L 146.28125 10.90625 L 144.421875 10.929688 L 142.558594 10.953125 L 142.449219 11.25 C 142.261719 11.742188 140.921875 15.972656 140.691406 16.789062 C 140.574219 17.207031 140.40625 17.734375 140.320312 17.957031 L 140.167969 18.363281 L 139.6875 16.816406 C 139.425781 15.964844 139.210938 15.214844 139.210938 15.15625 C 139.210938 15.03125 138.8125 13.640625 138.3125 12.011719 L 137.988281 10.953125 L 136.089844 10.929688 C 135.046875 10.917969 134.167969 10.933594 134.136719 10.964844 M 159.511719 11.054688 C 159.46875 11.140625 159.292969 11.585938 159.125 12.050781 C 158.953125 12.519531 158.78125 12.972656 158.738281 13.066406 C 158.582031 13.402344 158.03125 14.9375 157.890625 15.433594 C 157.808594 15.714844 157.566406 16.398438 157.351562 16.957031 C 156.628906 18.839844 156.214844 19.992188 156.214844 20.101562 C 156.214844 20.160156 156.097656 20.496094 155.960938 20.847656 C 155.585938 21.800781 155.527344 21.746094 156.824219 21.71875 L 157.9375 21.695312 L 158.355469 20.574219 L 158.769531 19.453125 L 162.945312 19.453125 L 162.949219 19.683594 C 162.953125 19.8125 163.097656 20.316406 163.273438 20.804688 L 163.59375 21.695312 L 164.828125 21.71875 C 166.21875 21.742188 166.167969 21.773438 165.894531 21.09375 C 165.632812 20.429688 164.664062 17.664062 164.570312 17.296875 C 164.519531 17.109375 164.285156 16.425781 164.046875 15.773438 C 163.808594 15.121094 163.457031 14.132812 163.269531 13.574219 C 163.082031 13.015625 162.808594 12.199219 162.65625 11.757812 L 162.382812 10.953125 L 160.984375 10.929688 C 159.71875 10.910156 159.582031 10.921875 159.511719 11.054688 M 167.007812 16.300781 L 167.027344 21.695312 L 169.300781 21.695312 L 169.386719 13.234375 L 169.566406 13.660156 C 169.664062 13.890625 169.769531 14.160156 169.796875 14.25 C 169.824219 14.34375 170.183594 15.109375 170.59375 15.953125 C 171.007812 16.792969 171.371094 17.574219 171.40625 17.683594 C 171.441406 17.796875 171.84375 18.660156 172.300781 19.605469 C 172.757812 20.550781 173.128906 21.371094 173.128906 21.429688 C 173.128906 21.703125 173.332031 21.734375 174.914062 21.734375 L 176.496094 21.734375 L 176.496094 10.910156 L 174.308594 10.910156 L 174.300781 18.988281 L 173.722656 17.804688 C 173.410156 17.152344 172.746094 15.761719 172.25 14.714844 C 171.753906 13.671875 171.140625 12.386719 170.886719 11.863281 L 170.429688 10.910156 L 166.984375 10.910156 L 167.007812 16.300781 M 147.816406 16.339844 L 147.839844 21.695312 L 150.28125 21.695312 L 150.300781 19.652344 L 150.324219 17.613281 L 151.734375 17.574219 C 153.5 17.523438 153.914062 17.394531 154.605469 16.671875 C 156.277344 14.925781 155.761719 11.980469 153.660156 11.273438 C 152.980469 11.046875 152.945312 11.042969 150.382812 11.011719 L 147.796875 10.984375 L 147.816406 16.339844 M 177.421875 11.105469 C 177.421875 11.164062 177.457031 11.25 177.5 11.296875 C 177.542969 11.339844 177.851562 11.910156 178.183594 12.558594 C 178.515625 13.210938 179.050781 14.203125 179.371094 14.765625 C 179.6875 15.328125 179.949219 15.816406 179.949219 15.847656 C 179.949219 15.878906 180.167969 16.3125 180.433594 16.8125 L 180.917969 17.71875 L 180.957031 19.707031 L 181 21.695312 L 182.15625 21.71875 L 183.316406 21.742188 L 183.316406 17.863281 L 183.707031 17.113281 C 183.921875 16.703125 184.144531 16.308594 184.199219 16.238281 C 184.257812 16.167969 184.652344 15.425781 185.082031 14.589844 C 185.511719 13.753906 185.929688 12.972656 186.007812 12.855469 C 186.148438 12.65625 186.933594 11.101562 186.933594 11.027344 C 186.933594 11.007812 186.375 11 185.695312 11.015625 L 184.453125 11.039062 L 184.011719 11.925781 C 183.769531 12.414062 183.492188 13.023438 183.394531 13.277344 C 183.167969 13.871094 182.359375 15.5625 182.304688 15.5625 C 182.25 15.5625 181.632812 14.277344 181.632812 14.167969 C 181.632812 14.125 181.304688 13.390625 180.902344 12.542969 L 180.171875 10.996094 L 178.796875 10.996094 C 177.726562 10.996094 177.421875 11.019531 177.421875 11.105469 M 128.734375 12.65625 C 130.4375 13.242188 131.078125 16.507812 129.945312 18.84375 C 128.980469 20.832031 126.054688 20.433594 125.503906 18.234375 C 124.582031 14.542969 126.179688 11.785156 128.734375 12.65625 M 152.4375 13.015625 C 152.808594 13.132812 153.015625 13.558594 153.015625 14.199219 C 153.015625 15.292969 152.417969 15.730469 150.9375 15.730469 L 150.238281 15.730469 L 150.238281 12.835938 L 151.183594 12.878906 C 151.703125 12.902344 152.269531 12.960938 152.4375 13.015625 M 161.738281 16.0625 C 161.984375 16.824219 162.1875 17.480469 162.1875 17.519531 C 162.1875 17.558594 161.570312 17.59375 160.8125 17.59375 L 159.433594 17.59375 L 159.585938 17.019531 C 159.667969 16.707031 159.8125 16.277344 159.898438 16.070312 C 159.988281 15.859375 160.246094 15.164062 160.472656 14.523438 L 160.882812 13.355469 L 161.085938 14.015625 C 161.195312 14.378906 161.492188 15.300781 161.738281 16.0625 M 16.328125 15.417969 C 16.328125 15.457031 16.367188 15.464844 16.414062 15.433594 C 16.457031 15.40625 16.496094 15.421875 16.496094 15.472656 C 16.496094 15.523438 16.554688 15.5625 16.625 15.5625 C 16.777344 15.5625 17.101562 16.066406 17.046875 16.21875 C 17.023438 16.277344 17.042969 16.324219 17.089844 16.324219 C 17.132812 16.324219 17.171875 16.398438 17.171875 16.492188 C 17.171875 16.585938 17.132812 16.660156 17.089844 16.660156 C 17.042969 16.660156 17.027344 16.714844 17.050781 16.777344 C 17.195312 17.15625 16.320312 17.644531 15.765625 17.492188 C 15.066406 17.300781 14.910156 16.972656 14.976562 15.878906 C 14.980469 15.84375 15.03125 15.816406 15.09375 15.816406 C 15.15625 15.816406 15.253906 15.722656 15.316406 15.609375 C 15.378906 15.492188 15.457031 15.417969 15.492188 15.441406 C 15.53125 15.460938 15.578125 15.453125 15.597656 15.414062 C 15.652344 15.328125 16.328125 15.332031 16.328125 15.417969 M 14.246094 16.988281 C 14.234375 17.042969 14.257812 17.085938 14.300781 17.085938 C 14.347656 17.085938 14.40625 17.171875 14.441406 17.273438 C 14.503906 17.484375 15.429688 18.4375 15.570312 18.4375 C 15.785156 18.4375 15.609375 18.714844 15.140625 19.105469 C 14.859375 19.34375 14.65625 19.539062 14.6875 19.539062 C 14.71875 19.539062 14.550781 19.765625 14.308594 20.042969 C 14.066406 20.324219 13.820312 20.550781 13.753906 20.550781 C 13.691406 20.550781 13.59375 20.636719 13.539062 20.742188 C 13.382812 21.039062 12.523438 21.988281 12.414062 21.988281 C 12.296875 21.988281 12.015625 22.28125 12.074219 22.339844 C 12.097656 22.363281 11.945312 22.546875 11.738281 22.753906 C 11.386719 23.101562 11.3125 23.105469 11.355469 22.773438 C 11.363281 22.714844 11.328125 22.667969 11.277344 22.667969 C 11.226562 22.667969 11.207031 22.628906 11.234375 22.582031 C 11.265625 22.535156 11.253906 22.496094 11.210938 22.496094 C 11.171875 22.496094 11.066406 22.367188 10.980469 22.207031 C 10.894531 22.046875 10.792969 21.933594 10.757812 21.957031 C 10.71875 21.980469 10.664062 21.941406 10.640625 21.871094 C 10.589844 21.746094 10.292969 21.601562 10.164062 21.636719 C 10.128906 21.644531 10.101562 21.609375 10.101562 21.558594 C 10.101562 21.507812 10.042969 21.484375 9.976562 21.511719 C 9.652344 21.636719 9.828125 21.359375 10.460938 20.734375 C 11.136719 20.066406 12.136719 19.007812 12.925781 18.121094 C 13.144531 17.875 13.363281 17.675781 13.414062 17.671875 C 13.46875 17.671875 13.640625 17.480469 13.804688 17.25 C 14.066406 16.875 14.300781 16.738281 14.246094 16.988281 M 18.558594 17.421875 C 18.726562 17.65625 18.917969 17.847656 18.980469 17.847656 C 19.140625 17.847656 19.996094 18.652344 20.292969 19.085938 C 20.429688 19.289062 20.597656 19.453125 20.660156 19.453125 C 20.8125 19.453125 22.050781 20.625 22.050781 20.769531 C 22.050781 20.835938 22.128906 20.9375 22.21875 20.996094 C 22.507812 21.175781 22.390625 21.378906 22.03125 21.324219 C 21.996094 21.316406 21.96875 21.355469 21.96875 21.402344 C 21.96875 21.453125 21.929688 21.46875 21.882812 21.441406 C 21.835938 21.410156 21.800781 21.429688 21.800781 21.480469 C 21.800781 21.53125 21.703125 21.609375 21.589844 21.652344 C 21.472656 21.695312 21.378906 21.773438 21.378906 21.828125 C 21.378906 21.878906 21.304688 22.015625 21.214844 22.128906 C 21.125 22.246094 21.070312 22.394531 21.097656 22.460938 C 21.269531 22.910156 20.429688 22.167969 17.730469 19.496094 C 17.308594 19.078125 16.972656 18.703125 16.980469 18.671875 C 16.992188 18.636719 16.957031 18.617188 16.90625 18.628906 C 16.855469 18.640625 16.792969 18.601562 16.773438 18.542969 C 16.753906 18.484375 16.792969 18.4375 16.863281 18.4375 C 16.933594 18.4375 17.011719 18.371094 17.039062 18.289062 C 17.101562 18.105469 17.648438 17.507812 17.757812 17.507812 C 17.800781 17.507812 17.921875 17.394531 18.023438 17.253906 C 18.253906 16.941406 18.195312 16.921875 18.558594 17.421875 M 23.414062 22.0625 C 24.011719 22.292969 24.148438 23.25 23.660156 23.777344 C 23.304688 24.160156 21.769531 24.074219 22.007812 23.683594 C 22.039062 23.636719 22.003906 23.597656 21.929688 23.597656 C 21.859375 23.597656 21.796875 23.550781 21.792969 23.492188 C 21.75 22.960938 21.765625 22.582031 21.824219 22.582031 C 21.863281 22.582031 21.875 22.550781 21.851562 22.511719 C 21.804688 22.4375 22.074219 22.171875 22.347656 22.027344 C 22.542969 21.917969 23.089844 21.9375 23.414062 22.0625 M 9.761719 22.253906 C 9.761719 22.304688 9.820312 22.324219 9.890625 22.296875 C 9.960938 22.269531 10.015625 22.292969 10.015625 22.34375 C 10.015625 22.398438 10.042969 22.414062 10.074219 22.382812 C 10.148438 22.308594 10.527344 22.671875 10.472656 22.765625 C 10.445312 22.804688 10.46875 22.835938 10.519531 22.835938 C 10.574219 22.835938 10.589844 22.875 10.5625 22.921875 C 10.535156 22.964844 10.542969 23.003906 10.578125 23.003906 C 10.636719 23.003906 10.652344 23.378906 10.613281 23.828125 C 10.609375 23.886719 10.449219 24.046875 10.253906 24.1875 C 9.097656 25.03125 7.792969 23.4375 8.855469 22.480469 C 8.996094 22.355469 9.148438 22.269531 9.1875 22.292969 C 9.226562 22.316406 9.257812 22.296875 9.257812 22.25 C 9.257812 22.199219 9.371094 22.160156 9.511719 22.160156 C 9.648438 22.160156 9.761719 22.203125 9.761719 22.253906 "/>
<path style=" stroke:none;fill-rule:evenodd;fill:rgb(42.745098%,42.745098%,42.745098%);fill-opacity:1;" d="M 19.695312 10.953125 C 19.585938 11.066406 19.519531 11.183594 19.546875 11.210938 C 19.570312 11.238281 19.675781 11.140625 19.777344 11 C 19.996094 10.6875 19.964844 10.667969 19.695312 10.953125 M 22.136719 11.511719 C 22.136719 11.570312 22.054688 11.707031 21.953125 11.8125 C 21.851562 11.921875 21.789062 12.011719 21.8125 12.011719 C 21.929688 12.011719 22.308594 11.515625 22.226562 11.464844 C 22.175781 11.433594 22.136719 11.457031 22.136719 11.511719 M 18.320312 12.417969 C 18.164062 12.589844 18.132812 12.726562 18.265625 12.644531 C 18.351562 12.589844 18.546875 12.265625 18.492188 12.265625 C 18.472656 12.265625 18.394531 12.332031 18.320312 12.417969 M 20.847656 12.902344 C 20.71875 13.015625 20.636719 13.109375 20.667969 13.109375 C 20.699219 13.109375 20.679688 13.167969 20.621094 13.234375 C 20.5625 13.304688 20.535156 13.363281 20.5625 13.363281 C 20.585938 13.363281 20.726562 13.210938 20.875 13.023438 C 21.179688 12.632812 21.175781 12.609375 20.847656 12.902344 M 16.875 13.957031 C 16.792969 14.046875 16.765625 14.125 16.816406 14.125 C 16.867188 14.125 16.953125 14.046875 17 13.957031 C 17.050781 13.863281 17.078125 13.785156 17.058594 13.785156 C 17.042969 13.785156 16.960938 13.863281 16.875 13.957031 M 20.742188 14.230469 L 20.496094 14.503906 L 20.769531 14.257812 C 21.023438 14.023438 21.082031 13.957031 21.015625 13.957031 C 21 13.957031 20.878906 14.078125 20.742188 14.230469 M 17.863281 15.6875 L 18.09375 15.9375 L 18.285156 15.730469 L 18.472656 15.527344 L 18.285156 15.683594 C 18.097656 15.839844 18.089844 15.839844 17.863281 15.640625 L 17.632812 15.441406 L 17.863281 15.6875 M 14.5625 17.675781 C 14.609375 17.769531 14.695312 17.847656 14.746094 17.847656 C 14.796875 17.847656 14.769531 17.769531 14.6875 17.675781 C 14.601562 17.582031 14.519531 17.507812 14.503906 17.507812 C 14.484375 17.507812 14.511719 17.582031 14.5625 17.675781 M 11.707031 19.414062 C 11.5625 19.578125 11.445312 19.730469 11.445312 19.75 C 11.445312 19.847656 11.535156 19.769531 11.78125 19.453125 C 12.113281 19.035156 12.0625 19.007812 11.707031 19.414062 M 18.050781 19.785156 C 18.078125 19.832031 18.222656 19.953125 18.371094 20.054688 L 18.644531 20.242188 L 18.394531 19.976562 C 18.167969 19.726562 17.9375 19.601562 18.050781 19.785156 M 14.207031 19.9375 C 13.980469 20.203125 13.914062 20.363281 14.085938 20.222656 C 14.226562 20.105469 14.433594 19.792969 14.367188 19.792969 C 14.347656 19.792969 14.277344 19.859375 14.207031 19.9375 M 21.125 19.902344 C 21.125 19.917969 21.25 20.039062 21.398438 20.175781 L 21.671875 20.425781 L 21.425781 20.148438 C 21.195312 19.894531 21.125 19.835938 21.125 19.902344 M 10.347656 20.855469 C 10.1875 21.019531 10.113281 21.128906 10.183594 21.101562 C 10.300781 21.050781 10.742188 20.550781 10.671875 20.550781 C 10.652344 20.550781 10.507812 20.6875 10.347656 20.855469 M 12.707031 21.585938 L 12.429688 21.949219 L 12.753906 21.632812 C 12.933594 21.460938 13.058594 21.296875 13.03125 21.269531 C 13.003906 21.242188 12.859375 21.382812 12.707031 21.585938 M 19.949219 21.609375 C 20.054688 21.726562 20.183594 21.820312 20.230469 21.820312 C 20.277344 21.820312 20.226562 21.726562 20.117188 21.609375 C 20.007812 21.492188 19.878906 21.398438 19.832031 21.398438 C 19.789062 21.398438 19.839844 21.492188 19.949219 21.609375 M 23.578125 22.238281 C 23.652344 22.285156 23.738281 22.421875 23.769531 22.539062 C 23.796875 22.65625 23.859375 22.75 23.902344 22.75 C 24.023438 22.75 23.703125 22.21875 23.5625 22.179688 C 23.476562 22.160156 23.480469 22.175781 23.578125 22.238281 M 11.617188 22.746094 C 11.550781 22.789062 11.464844 22.804688 11.429688 22.78125 C 11.394531 22.761719 11.363281 22.78125 11.363281 22.824219 C 11.363281 22.992188 11.511719 22.996094 11.660156 22.832031 C 11.824219 22.652344 11.808594 22.625 11.617188 22.746094 "/>
<path style=" stroke:none;fill-rule:evenodd;fill:rgb(57.647059%,57.647059%,57.647059%);fill-opacity:1;" d="M 20.152344 9.324219 L 19.90625 9.601562 L 20.179688 9.351562 C 20.433594 9.121094 20.492188 9.050781 20.425781 9.050781 C 20.410156 9.050781 20.289062 9.171875 20.152344 9.324219 M 13.84375 20.296875 C 13.761719 20.390625 13.734375 20.46875 13.789062 20.46875 C 13.839844 20.46875 13.921875 20.390625 13.972656 20.296875 C 14.019531 20.207031 14.046875 20.128906 14.03125 20.128906 C 14.011719 20.128906 13.929688 20.207031 13.84375 20.296875 M 19.609375 21.269531 C 19.667969 21.339844 19.753906 21.398438 19.800781 21.398438 C 19.847656 21.398438 19.835938 21.34375 19.78125 21.269531 C 19.722656 21.203125 19.636719 21.144531 19.589844 21.144531 C 19.542969 21.144531 19.550781 21.199219 19.609375 21.269531 M 13.546875 21.882812 L 13.257812 22.203125 L 13.570312 21.910156 C 13.867188 21.640625 13.925781 21.566406 13.863281 21.566406 C 13.847656 21.566406 13.707031 21.710938 13.546875 21.882812 M 12.074219 23.449219 L 11.824219 23.722656 L 12.097656 23.476562 C 12.25 23.339844 12.371094 23.214844 12.371094 23.199219 C 12.371094 23.136719 12.304688 23.191406 12.074219 23.449219 M 15.800781 31.355469 C 15.953125 31.375 16.199219 31.375 16.347656 31.355469 C 16.5 31.335938 16.375 31.320312 16.074219 31.320312 C 15.773438 31.320312 15.652344 31.335938 15.800781 31.355469 "/>
<path style=" stroke:none;fill-rule:evenodd;fill:rgb(7.45098%,24.313725%,36.470588%);fill-opacity:1;" d="M 15.507812 0.738281 C 15.820312 0.753906 16.332031 0.753906 16.644531 0.738281 C 16.957031 0.722656 16.699219 0.710938 16.074219 0.710938 C 15.449219 0.710938 15.195312 0.722656 15.507812 0.738281 M 14.246094 0.820312 C 14.328125 0.839844 14.457031 0.839844 14.539062 0.820312 C 14.621094 0.796875 14.554688 0.78125 14.390625 0.78125 C 14.230469 0.78125 14.164062 0.796875 14.246094 0.820312 M 17.613281 0.820312 C 17.691406 0.839844 17.824219 0.839844 17.90625 0.820312 C 17.988281 0.796875 17.921875 0.78125 17.757812 0.78125 C 17.597656 0.78125 17.53125 0.796875 17.613281 0.820312 M 26.21875 4.566406 C 26.398438 4.753906 26.566406 4.90625 26.589844 4.90625 C 26.613281 4.90625 26.484375 4.753906 26.300781 4.566406 C 26.121094 4.382812 25.953125 4.230469 25.929688 4.230469 C 25.90625 4.230469 26.039062 4.382812 26.21875 4.566406 M 5.71875 4.714844 L 5.429688 5.03125 L 5.746094 4.742188 C 5.917969 4.582031 6.058594 4.4375 6.058594 4.421875 C 6.058594 4.359375 5.988281 4.421875 5.71875 4.714844 M 4.546875 5.878906 C 4.339844 6.085938 4.191406 6.257812 4.214844 6.257812 C 4.238281 6.257812 4.425781 6.085938 4.628906 5.878906 C 4.832031 5.667969 4.980469 5.496094 4.957031 5.496094 C 4.9375 5.496094 4.75 5.667969 4.546875 5.878906 M 27.648438 6.003906 C 27.828125 6.191406 27.996094 6.34375 28.019531 6.34375 C 28.042969 6.34375 27.914062 6.191406 27.734375 6.003906 C 27.550781 5.820312 27.386719 5.667969 27.363281 5.667969 C 27.339844 5.667969 27.46875 5.820312 27.648438 6.003906 M 10.261719 8.320312 C 10.484375 8.558594 10.519531 8.582031 10.519531 8.46875 C 10.519531 8.425781 10.417969 8.324219 10.289062 8.242188 L 10.058594 8.09375 L 10.261719 8.320312 M 21.039062 8.4375 L 20.746094 8.753906 L 21.0625 8.460938 C 21.355469 8.191406 21.417969 8.121094 21.351562 8.121094 C 21.339844 8.121094 21.195312 8.261719 21.039062 8.4375 M 2.394531 8.972656 C 2.273438 9.210938 2.191406 9.417969 2.207031 9.4375 C 2.226562 9.453125 2.339844 9.257812 2.464844 9.003906 C 2.589844 8.75 2.671875 8.542969 2.652344 8.542969 C 2.628906 8.542969 2.515625 8.738281 2.394531 8.972656 M 7.679688 16.210938 C 7.667969 20.316406 7.6875 23.6875 7.722656 23.710938 C 7.78125 23.746094 7.777344 18.382812 7.722656 11.417969 C 7.707031 9.953125 7.691406 12.109375 7.679688 16.210938 M 19.648438 9.917969 L 19.230469 10.359375 L 19.671875 9.941406 C 20.085938 9.550781 20.15625 9.472656 20.089844 9.472656 C 20.078125 9.472656 19.878906 9.671875 19.648438 9.917969 M 22.273438 10.761719 C 22.296875 10.796875 22.40625 10.824219 22.515625 10.824219 C 22.625 10.824219 22.734375 10.796875 22.753906 10.761719 C 22.777344 10.726562 22.667969 10.699219 22.515625 10.699219 C 22.363281 10.699219 22.253906 10.726562 22.273438 10.761719 M 19.269531 11.390625 L 19.0625 11.617188 L 19.292969 11.453125 C 19.417969 11.363281 19.523438 11.261719 19.523438 11.226562 C 19.527344 11.125 19.480469 11.152344 19.269531 11.390625 M 18.089844 11.566406 L 17.800781 11.882812 L 18.117188 11.589844 C 18.410156 11.320312 18.472656 11.25 18.40625 11.25 C 18.394531 11.25 18.25 11.390625 18.089844 11.566406 M 22.890625 11.902344 L 22.347656 12.476562 L 22.914062 11.929688 C 23.441406 11.417969 23.519531 11.332031 23.460938 11.332031 C 23.445312 11.332031 23.191406 11.589844 22.890625 11.902344 M 18.386719 12.285156 L 18.136719 12.558594 L 18.410156 12.3125 C 18.667969 12.078125 18.722656 12.011719 18.660156 12.011719 C 18.644531 12.011719 18.519531 12.132812 18.386719 12.285156 M 21.125 12.6875 C 20.980469 12.871094 20.878906 13.023438 20.902344 13.023438 C 20.925781 13.023438 21.0625 12.871094 21.210938 12.6875 C 21.355469 12.5 21.457031 12.347656 21.433594 12.347656 C 21.410156 12.347656 21.273438 12.5 21.125 12.6875 M 17.921875 12.824219 C 17.726562 13.039062 17.726562 13.042969 17.902344 12.953125 C 18.097656 12.847656 18.222656 12.699219 18.160156 12.640625 C 18.140625 12.617188 18.03125 12.703125 17.921875 12.824219 M 16.617188 13.128906 L 16.285156 13.488281 L 16.644531 13.15625 C 16.839844 12.972656 17 12.808594 17 12.796875 C 17 12.730469 16.929688 12.796875 16.617188 13.128906 M 21.417969 13.46875 L 20.914062 13.996094 L 21.441406 13.492188 C 21.929688 13.023438 22.007812 12.941406 21.945312 12.941406 C 21.929688 12.941406 21.695312 13.179688 21.417969 13.46875 M 16.996094 13.765625 L 16.707031 14.082031 L 17.023438 13.789062 C 17.316406 13.519531 17.378906 13.449219 17.3125 13.449219 C 17.296875 13.449219 17.15625 13.589844 16.996094 13.765625 M 15.359375 14.484375 L 14.855469 15.011719 L 15.382812 14.507812 C 15.671875 14.230469 15.90625 13.992188 15.90625 13.980469 C 15.90625 13.917969 15.824219 13.992188 15.359375 14.484375 M 0.777344 14.378906 C 0.777344 14.539062 0.792969 14.605469 0.816406 14.527344 C 0.835938 14.445312 0.835938 14.3125 0.816406 14.230469 C 0.792969 14.148438 0.777344 14.214844 0.777344 14.378906 M 16.578125 14.253906 C 16.417969 14.449219 16.53125 14.488281 16.707031 14.292969 C 16.789062 14.199219 16.820312 14.125 16.773438 14.125 C 16.722656 14.125 16.636719 14.183594 16.578125 14.253906 M 20.070312 14.90625 L 19.652344 15.351562 L 20.09375 14.929688 C 20.503906 14.539062 20.574219 14.460938 20.511719 14.460938 C 20.5 14.460938 20.300781 14.664062 20.070312 14.90625 M 31.425781 16.027344 C 31.425781 16.679688 31.441406 16.933594 31.457031 16.59375 C 31.472656 16.253906 31.472656 15.722656 31.457031 15.410156 C 31.441406 15.097656 31.425781 15.375 31.425781 16.027344 M 0.707031 16.070312 C 0.707031 16.652344 0.71875 16.890625 0.734375 16.597656 C 0.75 16.308594 0.75 15.832031 0.734375 15.542969 C 0.71875 15.25 0.707031 15.488281 0.707031 16.070312 M 19.269531 15.792969 L 18.980469 16.113281 L 19.296875 15.820312 C 19.589844 15.550781 19.648438 15.476562 19.585938 15.476562 C 19.570312 15.476562 19.429688 15.621094 19.269531 15.792969 M 13.84375 16.089844 L 13.339844 16.621094 L 13.867188 16.113281 C 14.15625 15.835938 14.390625 15.597656 14.390625 15.585938 C 14.390625 15.523438 14.308594 15.601562 13.84375 16.089844 M 17 16.492188 C 17 16.585938 17.039062 16.660156 17.085938 16.660156 C 17.132812 16.660156 17.171875 16.585938 17.171875 16.492188 C 17.171875 16.398438 17.132812 16.324219 17.085938 16.324219 C 17.039062 16.324219 17 16.398438 17 16.492188 M 12.410156 17.613281 L 11.910156 18.140625 L 12.4375 17.636719 C 12.925781 17.167969 13 17.085938 12.9375 17.085938 C 12.925781 17.085938 12.6875 17.320312 12.410156 17.613281 M 19.359375 17.109375 C 19.359375 17.121094 19.652344 17.414062 20.011719 17.761719 L 20.664062 18.394531 L 20.035156 17.738281 C 19.449219 17.132812 19.359375 17.046875 19.359375 17.109375 M 0.777344 17.675781 C 0.777344 17.839844 0.792969 17.90625 0.816406 17.824219 C 0.835938 17.742188 0.835938 17.609375 0.816406 17.527344 C 0.792969 17.445312 0.777344 17.511719 0.777344 17.675781 M 19.023438 17.863281 C 19.023438 17.878906 19.257812 18.097656 19.546875 18.347656 C 19.917969 18.667969 19.984375 18.710938 19.78125 18.488281 C 19.507812 18.195312 19.023438 17.792969 19.023438 17.863281 M 12.828125 18.207031 C 12.457031 18.632812 12.347656 18.777344 12.390625 18.777344 C 12.414062 18.777344 12.574219 18.605469 12.746094 18.394531 C 13.0625 18.007812 13.125 17.859375 12.828125 18.207031 M 15.53125 18.527344 C 15.5625 18.578125 15.5 18.722656 15.390625 18.84375 L 15.191406 19.070312 L 15.421875 18.867188 C 15.65625 18.660156 15.730469 18.4375 15.566406 18.4375 C 15.515625 18.4375 15.503906 18.480469 15.53125 18.527344 M 21.839844 19.539062 C 22.253906 19.957031 22.613281 20.296875 22.636719 20.296875 C 22.660156 20.296875 22.339844 19.957031 21.925781 19.539062 C 21.511719 19.117188 21.152344 18.777344 21.128906 18.777344 C 21.105469 18.777344 21.425781 19.117188 21.839844 19.539062 M 15.984375 19.347656 L 15.78125 19.578125 L 16.035156 19.367188 C 16.171875 19.253906 16.300781 19.148438 16.320312 19.136719 C 16.339844 19.125 16.320312 19.113281 16.273438 19.113281 C 16.226562 19.113281 16.097656 19.21875 15.984375 19.347656 M 17.757812 19.566406 C 18.046875 19.894531 19.023438 20.726562 18.8125 20.464844 C 18.71875 20.351562 18.585938 20.222656 18.519531 20.175781 C 18.449219 20.132812 18.203125 19.925781 17.96875 19.714844 C 17.738281 19.5 17.644531 19.4375 17.757812 19.566406 M 20.703125 19.476562 C 20.703125 19.496094 20.941406 19.714844 21.230469 19.964844 C 21.519531 20.210938 21.664062 20.308594 21.546875 20.179688 C 21.324219 19.929688 20.703125 19.410156 20.703125 19.476562 M 14.5 19.644531 C 14.296875 19.90625 14.300781 19.984375 14.503906 19.796875 C 14.628906 19.683594 14.730469 19.578125 14.730469 19.566406 C 14.730469 19.496094 14.574219 19.546875 14.5 19.644531 M 11.265625 19.898438 C 11.128906 20.09375 11.117188 20.136719 11.222656 20.050781 C 11.375 19.929688 11.570312 19.621094 11.496094 19.621094 C 11.476562 19.621094 11.371094 19.746094 11.265625 19.898438 M 17.296875 20.128906 C 17.476562 20.316406 17.644531 20.46875 17.667969 20.46875 C 17.691406 20.46875 17.5625 20.316406 17.378906 20.128906 C 17.199219 19.941406 17.03125 19.792969 17.007812 19.792969 C 16.988281 19.792969 17.117188 19.941406 17.296875 20.128906 M 13.992188 20.300781 C 13.839844 20.4375 13.75 20.550781 13.785156 20.550781 C 13.824219 20.550781 13.964844 20.4375 14.097656 20.296875 C 14.40625 19.972656 14.347656 19.976562 13.992188 20.300781 M 23.398438 21.019531 C 23.648438 21.273438 23.875 21.480469 23.898438 21.480469 C 23.921875 21.480469 23.734375 21.273438 23.484375 21.019531 C 23.230469 20.761719 23.007812 20.550781 22.984375 20.550781 C 22.960938 20.550781 23.148438 20.761719 23.398438 21.019531 M 14.09375 21.25 L 13.675781 21.695312 L 14.117188 21.273438 C 14.53125 20.882812 14.597656 20.804688 14.535156 20.804688 C 14.523438 20.804688 14.324219 21.007812 14.09375 21.25 M 13.222656 21.066406 C 13.113281 21.15625 13.039062 21.25 13.0625 21.273438 C 13.082031 21.292969 13.191406 21.21875 13.296875 21.101562 C 13.535156 20.847656 13.5 20.832031 13.222656 21.066406 M 9.882812 21.324219 C 9.722656 21.503906 9.722656 21.507812 9.90625 21.410156 C 10.109375 21.300781 10.238281 21.144531 10.117188 21.144531 C 10.078125 21.144531 9.96875 21.226562 9.882812 21.324219 M 19.570312 21.300781 C 19.867188 21.65625 20.773438 22.410156 20.535156 22.101562 C 20.421875 21.953125 20.289062 21.828125 20.246094 21.824219 C 20.199219 21.824219 19.992188 21.660156 19.785156 21.460938 C 19.574219 21.265625 19.480469 21.191406 19.570312 21.300781 M 19.023438 21.777344 C 19.179688 21.941406 19.328125 22.074219 19.347656 22.074219 C 19.371094 22.074219 19.261719 21.941406 19.105469 21.777344 C 18.949219 21.617188 18.800781 21.480469 18.777344 21.480469 C 18.753906 21.480469 18.863281 21.617188 19.023438 21.777344 M 12.597656 21.78125 C 12.46875 21.894531 12.398438 21.988281 12.4375 21.988281 C 12.476562 21.988281 12.601562 21.894531 12.710938 21.777344 C 12.960938 21.507812 12.90625 21.511719 12.597656 21.78125 M 12.621094 22.816406 L 12.160156 23.300781 L 12.644531 22.839844 C 13.09375 22.410156 13.167969 22.328125 13.105469 22.328125 C 13.09375 22.328125 12.875 22.546875 12.621094 22.816406 M 24.679688 23.003906 C 24.679688 23.167969 24.699219 23.234375 24.71875 23.152344 C 24.738281 23.070312 24.738281 22.9375 24.71875 22.855469 C 24.699219 22.777344 24.679688 22.84375 24.679688 23.003906 M 20.832031 23.511719 C 21.058594 23.746094 21.265625 23.933594 21.289062 23.933594 C 21.3125 23.933594 21.144531 23.746094 20.914062 23.511719 C 20.6875 23.28125 20.480469 23.089844 20.460938 23.089844 C 20.4375 23.089844 20.601562 23.28125 20.832031 23.511719 M 11.148438 24.378906 L 10.648438 24.90625 L 11.171875 24.402344 C 11.660156 23.933594 11.738281 23.851562 11.675781 23.851562 C 11.664062 23.851562 11.425781 24.089844 11.148438 24.378906 M 21.292969 24.046875 C 21.292969 24.0625 21.417969 24.183594 21.566406 24.320312 L 21.839844 24.570312 L 21.59375 24.292969 C 21.363281 24.039062 21.292969 23.980469 21.292969 24.046875 M 8.574219 24.859375 C 8.683594 24.957031 8.8125 25.035156 8.859375 25.035156 C 8.964844 25.035156 8.960938 25.03125 8.625 24.835938 L 8.375 24.6875 L 8.574219 24.859375 M 22.660156 24.839844 C 22.742188 24.859375 22.875 24.859375 22.957031 24.839844 C 23.039062 24.816406 22.972656 24.800781 22.808594 24.800781 C 22.648438 24.800781 22.582031 24.816406 22.660156 24.839844 M 9.449219 25.179688 C 9.527344 25.199219 9.660156 25.199219 9.742188 25.179688 C 9.824219 25.15625 9.757812 25.140625 9.59375 25.140625 C 9.433594 25.140625 9.367188 25.15625 9.449219 25.179688 M 4.125 25.738281 C 4.125 25.753906 4.246094 25.875 4.398438 26.011719 L 4.671875 26.261719 L 4.421875 25.984375 C 4.195312 25.730469 4.125 25.671875 4.125 25.738281 M 26.886719 26.917969 L 26.554688 27.277344 L 26.914062 26.941406 C 27.246094 26.628906 27.308594 26.558594 27.246094 26.558594 C 27.230469 26.558594 27.070312 26.71875 26.886719 26.917969 M 4.964844 26.667969 C 4.964844 26.683594 5.089844 26.808594 5.238281 26.941406 L 5.511719 27.191406 L 5.265625 26.917969 C 5.035156 26.660156 4.964844 26.601562 4.964844 26.667969 M 5.976562 27.613281 C 6.132812 27.777344 6.28125 27.910156 6.304688 27.910156 C 6.328125 27.910156 6.21875 27.777344 6.058594 27.613281 C 5.902344 27.453125 5.753906 27.316406 5.730469 27.316406 C 5.710938 27.316406 5.820312 27.453125 5.976562 27.613281 M 26.042969 27.679688 L 25.796875 27.953125 L 26.070312 27.703125 C 26.324219 27.472656 26.382812 27.402344 26.316406 27.402344 C 26.304688 27.402344 26.179688 27.527344 26.042969 27.679688 M 14.835938 31.351562 C 14.914062 31.371094 15.046875 31.371094 15.128906 31.351562 C 15.210938 31.332031 15.144531 31.3125 14.980469 31.3125 C 14.820312 31.3125 14.753906 31.332031 14.835938 31.351562 M 17.023438 31.351562 C 17.105469 31.371094 17.234375 31.371094 17.316406 31.351562 C 17.398438 31.332031 17.332031 31.3125 17.171875 31.3125 C 17.007812 31.3125 16.941406 31.332031 17.023438 31.351562 "/>
</g>
</svg>
